<svg width="4250" height="1224" viewBox="0 0 4250 1224" fill="none" xmlns="http://www.w3.org/2000/svg">
<rect width="4250" height="1224" fill="white"/>
<rect x="115" y="115" width="994" height="994" rx="85" fill="white" stroke="white" stroke-width="30"/>
<circle cx="343" cy="883" r="50" fill="white"/>
<rect x="701" y="731" width="45" height="120" fill="#D9D9D9"/>
<rect x="168" y="218" width="350" height="350" rx="40" fill="url(#paint0_linear_945_17)"/>
<rect x="763" y="168" width="300" height="300" rx="40" fill="url(#paint1_linear_945_17)"/>
<rect x="943" y="468" width="50" height="198" fill="url(#paint2_linear_945_17)"/>
<rect x="318" y="568" width="50" height="252" fill="url(#paint3_linear_945_17)"/>
<rect x="518" y="343" width="50" height="245" transform="rotate(-90 518 343)" fill="url(#paint4_linear_945_17)"/>
<rect x="218" y="318" width="50" height="250" transform="rotate(-90 218 318)" fill="white"/>
<rect x="218" y="418" width="50" height="250" transform="rotate(-90 218 418)" fill="white"/>
<rect x="218" y="518" width="50" height="250" transform="rotate(-90 218 518)" fill="white"/>
<rect x="410" y="908" width="50" height="253" transform="rotate(-90 410 908)" fill="url(#paint5_linear_945_17)"/>
<circle cx="343" cy="883" r="75" fill="url(#paint6_linear_945_17)"/>
<circle cx="343" cy="883" r="50" fill="white"/>
<rect x="656" y="665" width="400" height="400" rx="40" fill="url(#paint7_linear_945_17)"/>
<rect x="705" y="722" width="300" height="60" rx="10" fill="white"/>
<rect x="705" y="809" width="186" height="109" rx="10" fill="white"/>
<rect x="916" y="809" width="89" height="109" rx="10" fill="white"/>
<rect x="705" y="945" width="300" height="70" rx="10" fill="white"/>
<path d="M1276.86 790V436.484H1406.25C1442.06 436.484 1473.06 443.564 1499.27 457.725C1525.47 471.885 1545.57 492.23 1559.57 518.76C1573.57 545.29 1580.57 576.784 1580.57 613.242C1580.57 649.701 1573.57 681.195 1559.57 707.725C1545.57 734.255 1525.47 754.6 1499.27 768.76C1473.06 782.92 1442.06 790 1406.25 790H1276.86ZM1403.32 718.711C1434.57 718.711 1458.01 710.492 1473.63 694.053C1489.26 677.451 1497.07 650.514 1497.07 613.242C1497.07 575.807 1489.18 548.789 1473.39 532.188C1457.76 515.586 1434.08 507.285 1402.34 507.285H1359.86V718.711H1403.32ZM1617.19 716.27C1617.19 688.926 1626.22 668.743 1644.29 655.723C1662.35 642.702 1686.04 635.215 1715.33 633.262C1729.98 632.285 1747.88 631.471 1769.04 630.82C1771.65 630.495 1774.9 630.332 1778.81 630.332V608.848C1778.81 599.57 1775.63 592.49 1769.29 587.607C1762.94 582.562 1754.07 580.039 1742.68 580.039C1731.61 580.039 1722.74 582.318 1716.06 586.875C1709.39 591.432 1705.24 598.105 1703.61 606.895H1626.95C1628.09 590.944 1633.3 576.54 1642.58 563.682C1652.02 550.661 1665.36 540.407 1682.62 532.92C1700.03 525.27 1720.7 521.445 1744.63 521.445C1766.76 521.445 1786.62 524.945 1804.2 531.943C1821.94 538.779 1835.86 548.87 1845.95 562.217C1856.2 575.4 1861.33 591.27 1861.33 609.824V790H1783.69V752.891H1781.74C1774.25 766.562 1764.08 776.979 1751.22 784.141C1738.36 791.302 1722.82 794.883 1704.59 794.883C1687.34 794.883 1672.12 791.953 1658.94 786.094C1645.91 780.234 1635.66 771.445 1628.17 759.727C1620.85 747.845 1617.19 733.359 1617.19 716.27ZM1695.31 712.852C1695.31 721.641 1698.4 728.395 1704.59 733.115C1710.94 737.835 1719.24 740.195 1729.49 740.195C1738.77 740.195 1747.23 738.324 1754.88 734.58C1762.53 730.837 1768.55 725.628 1772.95 718.955C1777.34 712.119 1779.46 704.388 1779.3 695.762V678.672H1774.41C1767.9 679.16 1759.68 679.73 1749.76 680.381C1739.83 680.869 1732.91 681.276 1729 681.602C1718.59 682.904 1710.37 686.322 1704.35 691.855C1698.32 697.227 1695.31 704.225 1695.31 712.852ZM2059.57 585.41H2011.23V706.992C2011.23 715.456 2013.43 721.234 2017.82 724.326C2022.22 727.419 2028.97 728.965 2038.09 728.965C2044.92 728.965 2053.22 728.639 2062.99 727.988V790.977C2055.66 791.953 2049.07 792.686 2043.21 793.174C2037.52 793.662 2030.44 793.906 2021.97 793.906C1992.02 793.906 1968.99 787.559 1952.88 774.863C1936.93 762.005 1929.04 742.474 1929.2 716.27V585.41H1893.55V524.863H1929.2V461.387H2011.23V524.863H2059.57V585.41ZM2089.84 716.27C2089.84 688.926 2098.88 668.743 2116.94 655.723C2135.01 642.702 2158.69 635.215 2187.99 633.262C2202.64 632.285 2220.54 631.471 2241.7 630.82C2244.3 630.495 2247.56 630.332 2251.46 630.332V608.848C2251.46 599.57 2248.29 592.49 2241.94 587.607C2235.6 582.562 2226.73 580.039 2215.33 580.039C2204.26 580.039 2195.39 582.318 2188.72 586.875C2182.05 591.432 2177.9 598.105 2176.27 606.895H2099.61C2100.75 590.944 2105.96 576.54 2115.23 563.682C2124.67 550.661 2138.02 540.407 2155.27 532.92C2172.69 525.27 2193.36 521.445 2217.29 521.445C2239.42 521.445 2259.28 524.945 2276.86 531.943C2294.6 538.779 2308.51 548.87 2318.6 562.217C2328.86 575.4 2333.98 591.27 2333.98 609.824V790H2256.35V752.891H2254.39C2246.91 766.562 2236.74 776.979 2223.88 784.141C2211.02 791.302 2195.48 794.883 2177.25 794.883C2159.99 794.883 2144.78 791.953 2131.59 786.094C2118.57 780.234 2108.32 771.445 2100.83 759.727C2093.51 747.845 2089.84 733.359 2089.84 716.27ZM2167.97 712.852C2167.97 721.641 2171.06 728.395 2177.25 733.115C2183.59 737.835 2191.89 740.195 2202.15 740.195C2211.43 740.195 2219.89 738.324 2227.54 734.58C2235.19 730.837 2241.21 725.628 2245.61 718.955C2250 712.119 2252.12 704.388 2251.95 695.762V678.672H2247.07C2240.56 679.16 2232.34 679.73 2222.41 680.381C2212.48 680.869 2205.57 681.276 2201.66 681.602C2191.24 682.904 2183.02 686.322 2177 691.855C2170.98 697.227 2167.97 704.225 2167.97 712.852ZM2619.63 563.926C2617.19 545.697 2609.7 531.292 2597.17 520.713C2584.8 510.133 2568.85 504.844 2549.32 504.844C2531.9 504.844 2516.93 509.157 2504.39 517.783C2491.86 526.247 2482.18 538.617 2475.34 554.893C2468.67 571.006 2465.33 590.456 2465.33 613.242C2465.33 636.68 2468.67 656.536 2475.34 672.812C2482.18 688.926 2491.86 701.133 2504.39 709.434C2516.93 717.572 2531.74 721.641 2548.83 721.641C2567.87 721.641 2583.66 716.758 2596.19 706.992C2608.72 697.227 2616.54 683.717 2619.63 666.465L2703.61 666.953C2701.17 688.763 2693.52 709.434 2680.66 728.965C2667.81 748.496 2649.98 764.365 2627.2 776.572C2604.41 788.779 2577.8 794.883 2547.36 794.883C2515.14 794.883 2486.41 787.721 2461.18 773.398C2435.95 759.076 2416.18 738.242 2401.86 710.898C2387.53 683.555 2380.37 651.003 2380.37 613.242C2380.37 575.319 2387.61 542.686 2402.1 515.342C2416.59 487.998 2436.44 467.246 2461.67 453.086C2487.06 438.763 2515.62 431.602 2547.36 431.602C2575.85 431.602 2601.32 436.81 2623.78 447.227C2646.24 457.643 2664.39 472.78 2678.22 492.637C2692.22 512.493 2700.68 536.257 2703.61 563.926H2619.63ZM2751.46 524.863H2831.54V572.715H2833.98C2838.7 555.788 2846.52 542.93 2857.42 534.141C2868.49 525.352 2881.51 520.957 2896.48 520.957C2902.99 520.957 2910.81 521.934 2919.92 523.887V595.664C2916.18 594.525 2911.13 593.63 2904.79 592.979C2898.44 592.165 2892.58 591.758 2887.21 591.758C2876.95 591.758 2867.76 594.036 2859.62 598.594C2851.64 602.988 2845.38 609.255 2840.82 617.393C2836.26 625.368 2833.98 634.564 2833.98 644.98V790H2751.46V524.863ZM2931.15 716.27C2931.15 688.926 2940.19 668.743 2958.25 655.723C2976.32 642.702 3000 635.215 3029.3 633.262C3043.95 632.285 3061.85 631.471 3083.01 630.82C3085.61 630.495 3088.87 630.332 3092.77 630.332V608.848C3092.77 599.57 3089.6 592.49 3083.25 587.607C3076.9 582.562 3068.03 580.039 3056.64 580.039C3045.57 580.039 3036.7 582.318 3030.03 586.875C3023.36 591.432 3019.21 598.105 3017.58 606.895H2940.92C2942.06 590.944 2947.27 576.54 2956.54 563.682C2965.98 550.661 2979.33 540.407 2996.58 532.92C3014 525.27 3034.67 521.445 3058.59 521.445C3080.73 521.445 3100.59 524.945 3118.16 531.943C3135.9 538.779 3149.82 548.87 3159.91 562.217C3170.17 575.4 3175.29 591.27 3175.29 609.824V790H3097.66V752.891H3095.7C3088.22 766.562 3078.04 776.979 3065.19 784.141C3052.33 791.302 3036.78 794.883 3018.55 794.883C3001.3 794.883 2986.08 791.953 2972.9 786.094C2959.88 780.234 2949.63 771.445 2942.14 759.727C2934.81 747.845 2931.15 733.359 2931.15 716.27ZM3009.28 712.852C3009.28 721.641 3012.37 728.395 3018.55 733.115C3024.9 737.835 3033.2 740.195 3043.46 740.195C3052.73 740.195 3061.2 738.324 3068.85 734.58C3076.5 730.837 3082.52 725.628 3086.91 718.955C3091.31 712.119 3093.42 704.388 3093.26 695.762V678.672H3088.38C3081.87 679.16 3073.65 679.73 3063.72 680.381C3053.79 680.869 3046.88 681.276 3042.97 681.602C3032.55 682.904 3024.33 686.322 3018.31 691.855C3012.29 697.227 3009.28 704.225 3009.28 712.852ZM3374.51 585.41H3324.22V790H3241.7V585.41H3205.57V524.863H3241.7V510.215C3241.7 480.755 3249.67 458.376 3265.62 443.076C3281.74 427.614 3303.87 419.883 3332.03 419.883C3349.45 419.883 3365.23 421.348 3379.39 424.277V485.312C3368.16 484.336 3360.68 483.848 3356.93 483.848C3346.19 483.848 3338.05 486.126 3332.52 490.684C3326.99 495.241 3324.22 502.402 3324.22 512.168V524.863H3374.51V585.41ZM3562.5 585.41H3514.16V706.992C3514.16 715.456 3516.36 721.234 3520.75 724.326C3525.15 727.419 3531.9 728.965 3541.02 728.965C3547.85 728.965 3556.15 728.639 3565.92 727.988V790.977C3558.59 791.953 3552 792.686 3546.14 793.174C3540.45 793.662 3533.37 793.906 3524.9 793.906C3494.95 793.906 3471.92 787.559 3455.81 774.863C3439.86 762.005 3431.97 742.474 3432.13 716.27V585.41H3396.48V524.863H3432.13V461.387H3514.16V524.863H3562.5V585.41Z" fill="black"/>
<path d="M3588.87 790L3708.98 436.484H3819.34L3938.96 790H3849.61L3825.68 714.316H3702.64L3678.71 790H3588.87ZM3805.66 650.84L3765.62 523.887H3762.7L3722.66 650.84H3805.66ZM4059.57 790H3976.56V436.484H4059.57V790Z" fill="#7C3AED"/>
<defs>
<linearGradient id="paint0_linear_945_17" x1="343" y1="218" x2="343" y2="568" gradientUnits="userSpaceOnUse">
<stop offset="0.129808" stop-color="#582EA1"/>
<stop offset="1" stop-color="#7C3AED"/>
</linearGradient>
<linearGradient id="paint1_linear_945_17" x1="913" y1="168" x2="913" y2="468" gradientUnits="userSpaceOnUse">
<stop offset="0.129808" stop-color="#582EA1"/>
<stop offset="1" stop-color="#7C3AED"/>
</linearGradient>
<linearGradient id="paint2_linear_945_17" x1="968" y1="468" x2="968" y2="666" gradientUnits="userSpaceOnUse">
<stop offset="0.129808" stop-color="#582EA1"/>
<stop offset="1" stop-color="#7C3AED"/>
</linearGradient>
<linearGradient id="paint3_linear_945_17" x1="343" y1="568" x2="343" y2="820" gradientUnits="userSpaceOnUse">
<stop offset="0.129808" stop-color="#582EA1"/>
<stop offset="1" stop-color="#7C3AED"/>
</linearGradient>
<linearGradient id="paint4_linear_945_17" x1="543" y1="343" x2="543" y2="588" gradientUnits="userSpaceOnUse">
<stop offset="0.129808" stop-color="#582EA1"/>
<stop offset="1" stop-color="#7C3AED"/>
</linearGradient>
<linearGradient id="paint5_linear_945_17" x1="435" y1="908" x2="435" y2="1161" gradientUnits="userSpaceOnUse">
<stop offset="0.129808" stop-color="#582EA1"/>
<stop offset="1" stop-color="#7C3AED"/>
</linearGradient>
<linearGradient id="paint6_linear_945_17" x1="343" y1="808" x2="343" y2="958" gradientUnits="userSpaceOnUse">
<stop offset="0.129808" stop-color="#582EA1"/>
<stop offset="1" stop-color="#7C3AED"/>
</linearGradient>
<linearGradient id="paint7_linear_945_17" x1="856" y1="665" x2="856" y2="1065" gradientUnits="userSpaceOnUse">
<stop offset="0.129808" stop-color="#582EA1"/>
<stop offset="1" stop-color="#7C3AED"/>
</linearGradient>
</defs>
</svg>
