<svg width="1024" height="1024" viewBox="0 0 1024 1024" fill="none" xmlns="http://www.w3.org/2000/svg">
<circle cx="243" cy="783" r="50" fill="white"/>
<rect x="68" y="118" width="350" height="350" rx="40" fill="url(#paint0_linear_945_106)"/>
<rect x="663" y="68" width="300" height="300" rx="40" fill="url(#paint1_linear_945_106)"/>
<rect x="843" y="368" width="50" height="198" fill="url(#paint2_linear_945_106)"/>
<rect x="218" y="468" width="50" height="252" fill="url(#paint3_linear_945_106)"/>
<rect x="418" y="243" width="50" height="245" transform="rotate(-90 418 243)" fill="url(#paint4_linear_945_106)"/>
<rect x="118" y="218" width="50" height="250" transform="rotate(-90 118 218)" fill="white"/>
<rect x="118" y="318" width="50" height="250" transform="rotate(-90 118 318)" fill="white"/>
<rect x="118" y="418" width="50" height="250" transform="rotate(-90 118 418)" fill="white"/>
<rect x="310" y="808" width="50" height="253" transform="rotate(-90 310 808)" fill="url(#paint5_linear_945_106)"/>
<circle cx="243" cy="783" r="75" fill="url(#paint6_linear_945_106)"/>
<circle cx="243" cy="785" r="50" fill="white"/>
<rect x="556" y="565" width="400" height="400" rx="40" fill="url(#paint7_linear_945_106)"/>
<path d="M895 845C900.523 845 905 849.477 905 855V905C905 910.523 900.523 915 895 915H615C609.477 915 605 910.523 605 905V855C605 849.477 609.477 845 615 845H895ZM781 709C786.523 709 791 713.477 791 719V808C791 813.523 786.523 818 781 818H615C609.477 818 605 813.523 605 808V719C605 713.477 609.477 709 615 709H781ZM895 709C900.523 709 905 713.477 905 719V808C905 813.523 900.523 818 895 818H826C820.477 818 816 813.523 816 808V719C816 713.477 820.477 709 826 709H895ZM895 622C900.523 622 905 626.477 905 632V672C905 677.523 900.523 682 895 682H615C609.477 682 605 677.523 605 672V632C605 626.477 609.477 622 615 622H895Z" fill="white"/>
<defs>
<linearGradient id="paint0_linear_945_106" x1="243" y1="118" x2="243" y2="468" gradientUnits="userSpaceOnUse">
<stop offset="0.129808" stop-color="#582EA1"/>
<stop offset="1" stop-color="#7C3AED"/>
</linearGradient>
<linearGradient id="paint1_linear_945_106" x1="813" y1="68" x2="813" y2="368" gradientUnits="userSpaceOnUse">
<stop offset="0.129808" stop-color="#582EA1"/>
<stop offset="1" stop-color="#7C3AED"/>
</linearGradient>
<linearGradient id="paint2_linear_945_106" x1="868" y1="368" x2="868" y2="566" gradientUnits="userSpaceOnUse">
<stop offset="0.129808" stop-color="#582EA1"/>
<stop offset="1" stop-color="#7C3AED"/>
</linearGradient>
<linearGradient id="paint3_linear_945_106" x1="243" y1="468" x2="243" y2="720" gradientUnits="userSpaceOnUse">
<stop offset="0.129808" stop-color="#582EA1"/>
<stop offset="1" stop-color="#7C3AED"/>
</linearGradient>
<linearGradient id="paint4_linear_945_106" x1="443" y1="243" x2="443" y2="488" gradientUnits="userSpaceOnUse">
<stop offset="0.129808" stop-color="#582EA1"/>
<stop offset="1" stop-color="#7C3AED"/>
</linearGradient>
<linearGradient id="paint5_linear_945_106" x1="335" y1="808" x2="335" y2="1061" gradientUnits="userSpaceOnUse">
<stop offset="0.129808" stop-color="#582EA1"/>
<stop offset="1" stop-color="#7C3AED"/>
</linearGradient>
<linearGradient id="paint6_linear_945_106" x1="243" y1="708" x2="243" y2="858" gradientUnits="userSpaceOnUse">
<stop offset="0.129808" stop-color="#582EA1"/>
<stop offset="1" stop-color="#7C3AED"/>
</linearGradient>
<linearGradient id="paint7_linear_945_106" x1="756" y1="565" x2="756" y2="965" gradientUnits="userSpaceOnUse">
<stop offset="0.129808" stop-color="#582EA1"/>
<stop offset="1" stop-color="#7C3AED"/>
</linearGradient>
</defs>
</svg>
